<?xml version="1.0" standalone="no"?>
<!DOCTYPE svg PUBLIC "-//W3C//DTD SVG 20010904//EN"
 "http://www.w3.org/TR/2001/REC-SVG-20010904/DTD/svg10.dtd">
<svg version="1.0" xmlns="http://www.w3.org/2000/svg"
 width="409.000000pt" height="512.000000pt" viewBox="0 0 409.000000 512.000000"
 preserveAspectRatio="xMidYMid meet">
<metadata>
Created by potrace 1.16, written by Peter Selinger 2001-2019
</metadata>
<g transform="translate(0.000000,512.000000) scale(0.100000,-0.100000)"
fill="#000000" stroke="none">
<path d="M0 2906 l0 -2214 147 59 c82 33 169 71 196 85 26 13 47 21 47 17 0
-4 6 1 13 10 11 15 343 175 398 192 13 4 43 20 66 36 66 43 51 20 -18 -29 -33
-23 -64 -40 -69 -37 -5 3 -70 -23 -144 -59 -74 -37 -139 -66 -144 -66 -18 0
-62 -27 -55 -34 4 -4 0 -4 -9 -1 -9 4 -18 0 -21 -9 -4 -9 -15 -16 -25 -16 -11
0 -31 -9 -45 -20 -14 -11 -31 -20 -37 -20 -7 0 -25 -9 -41 -21 -16 -11 -44
-23 -62 -26 -17 -3 -68 -20 -112 -38 l-80 -33 -3 -341 -2 -341 665 0 c628 0
664 1 658 18 -6 16 -5 16 14 0 18 -17 99 -18 1386 -18 l1367 0 0 2560 0 2560
-2045 0 -2045 0 0 -2214z m2181 2048 c35 -11 48 -18 39 -24 -9 -6 -6 -8 11 -9
41 -1 59 -4 59 -11 0 -13 78 -30 141 -30 47 0 60 -3 49 -10 -12 -8 -10 -10 10
-9 57 4 73 0 67 -20 -6 -25 13 -32 52 -21 20 5 31 5 31 -1 0 -6 4 -8 8 -5 4 2
27 -4 51 -15 33 -15 41 -16 31 -4 -10 12 -10 15 0 15 6 0 14 -9 17 -20 3 -11
9 -21 14 -21 5 -1 15 -2 21 -3 7 0 13 -10 13 -21 0 -12 11 -25 28 -33 16 -8
31 -20 33 -27 3 -7 28 -33 57 -56 28 -24 47 -37 42 -29 -8 13 -6 13 8 1 9 -7
17 -10 17 -6 0 4 6 2 14 -5 8 -6 12 -18 9 -26 -6 -17 8 -18 26 -1 11 10 11 8
0 -10 -7 -12 -16 -20 -20 -17 -4 2 -11 0 -14 -6 -5 -8 -11 -7 -21 1 -15 13
-44 6 -44 -11 0 -7 8 -9 20 -5 10 3 32 -1 47 -9 l28 -16 -30 6 c-23 4 -26 3
-15 -5 12 -9 11 -11 -8 -11 -16 0 -21 4 -16 13 5 9 4 9 -5 1 -13 -12 -5 -44
11 -44 5 0 6 4 3 10 -3 5 0 7 8 4 7 -2 25 4 38 15 21 18 22 22 9 32 -13 10
-13 10 0 6 8 -3 23 -8 32 -12 13 -5 23 2 40 31 12 20 24 32 26 25 3 -9 8 -9
21 1 9 7 -8 -11 -39 -40 -30 -30 -50 -51 -44 -48 7 3 14 -4 17 -16 4 -12 9
-19 13 -15 4 4 13 2 21 -4 10 -9 17 -8 31 2 15 13 16 12 3 -4 -8 -10 -20 -16
-28 -13 -9 4 -9 -1 3 -20 14 -21 22 -24 53 -19 29 4 32 4 14 -4 -25 -11 -32
-24 -8 -15 11 5 13 2 9 -10 -5 -12 -2 -15 12 -10 16 5 17 4 4 -6 -13 -10 -13
-13 4 -23 44 -29 66 -49 61 -58 -4 -5 1 -6 9 -3 9 3 16 1 16 -6 0 -14 49 -80
58 -78 4 1 18 -4 32 -11 l25 -11 -27 3 -28 4 20 -26 c51 -66 61 -81 55 -81 -4
0 0 -11 9 -24 8 -14 22 -44 30 -68 l15 -43 -24 27 c-15 18 -22 35 -18 50 3 15
2 19 -4 11 -6 -9 -15 5 -28 43 -10 30 -23 57 -27 60 -5 3 -2 -11 6 -31 19 -44
19 -45 6 -45 -5 0 -10 9 -10 20 0 11 -4 20 -10 20 -5 0 -10 9 -10 20 0 11 -7
23 -15 26 -8 4 -12 10 -9 15 3 5 0 9 -5 9 -6 0 -11 7 -11 15 0 8 -7 15 -15 15
-8 0 -15 7 -15 16 0 9 -9 18 -20 21 -11 3 -17 9 -15 14 3 4 -3 13 -14 18 -14
8 -22 7 -31 -4 -15 -18 -31 -20 -27 -2 1 6 -7 12 -18 12 -11 0 -19 5 -17 10 1
6 11 10 22 10 10 0 23 5 27 9 5 5 2 6 -6 1 -11 -6 -13 -4 -8 7 4 12 1 14 -15
10 -12 -3 -26 -18 -32 -34 -6 -15 -14 -28 -19 -28 -5 0 -7 6 -4 13 7 19 -24
18 -46 -2 -11 -9 -26 -16 -35 -16 -32 0 -44 40 -14 48 13 4 11 5 -5 6 -13 0
-23 6 -23 11 0 6 2 10 4 10 2 0 13 3 23 6 15 5 15 4 3 -5 -9 -7 -10 -11 -3
-11 19 0 22 14 8 33 -9 12 -14 14 -17 6 -6 -18 -28 -1 -28 22 0 11 -4 18 -9
14 -5 -3 -11 5 -13 17 -3 23 -33 33 -33 11 0 -6 -4 -15 -9 -20 -5 -5 -6 -3 -2
5 4 6 2 12 -4 12 -6 0 2 12 17 26 22 20 23 24 8 19 -11 -3 -16 -3 -12 1 4 4 0
19 -10 33 -16 25 -16 25 2 11 17 -14 18 -13 11 5 -4 11 -13 34 -18 50 -13 37
-24 51 -60 76 l-28 21 11 -26 c7 -14 16 -23 20 -20 5 3 9 -2 9 -10 0 -9 9 -25
20 -36 16 -16 17 -20 5 -20 -9 0 -19 8 -22 17 -7 19 -31 48 -78 97 -52 54 -71
63 -35 16 19 -25 38 -48 43 -51 5 -3 9 -10 9 -15 0 -5 3 -8 7 -7 4 1 7 -6 7
-15 1 -9 4 -26 9 -37 4 -11 -3 -4 -15 15 -29 46 -86 103 -106 106 -12 2 -13
-1 -3 -12 6 -8 8 -14 5 -14 -4 0 -4 -5 -1 -10 5 -8 12 -7 23 2 10 8 13 9 9 1
-4 -6 6 -33 23 -59 29 -47 34 -69 8 -43 -8 8 -29 35 -48 60 -34 44 -101 108
-117 112 -4 1 -7 5 -6 8 1 4 -8 15 -20 25 -12 10 -16 12 -9 4 18 -21 14 -35
-6 -19 -10 8 -7 3 8 -10 14 -14 25 -32 25 -40 0 -9 5 -16 12 -16 18 0 36 -22
28 -34 -9 -15 -23 -5 -46 33 -10 17 -19 27 -19 22 0 -6 -17 6 -37 25 -29 27
-32 29 -16 7 11 -15 19 -39 18 -53 -2 -14 0 -23 4 -20 5 2 18 -7 31 -20 13
-13 27 -22 31 -19 4 2 6 -5 4 -17 -3 -17 -2 -19 10 -9 12 10 13 8 10 -8 -2
-14 5 -26 21 -37 14 -9 22 -20 19 -25 -4 -6 -35 19 -71 55 -64 64 -96 84 -72
46 7 -11 16 -17 22 -14 5 4 6 1 1 -7 -6 -9 -4 -11 5 -5 9 5 11 4 6 -3 -5 -8
-2 -10 8 -6 11 4 16 0 16 -12 0 -16 -2 -17 -10 -4 -8 12 -10 13 -10 1 0 -8
-12 2 -27 21 -16 20 -43 48 -61 63 -18 15 -31 30 -28 33 3 3 12 -1 21 -8 8 -7
15 -10 15 -6 0 3 0 9 0 13 0 4 -7 8 -16 9 -9 1 -26 11 -38 21 -36 32 -53 40
-21 10 22 -21 25 -27 10 -22 -17 5 -17 3 5 -22 20 -21 15 -20 -21 9 -25 21
-52 38 -60 40 -7 2 -22 11 -33 20 -11 10 -38 27 -60 39 -36 19 -38 19 -26 2
14 -17 13 -17 -7 1 -23 19 -143 49 -143 36 0 -4 12 -11 26 -14 15 -4 25 -9 22
-11 -5 -5 -84 18 -94 28 -4 4 -19 7 -33 6 -14 0 -20 -3 -13 -6 6 -2 9 -10 6
-15 -4 -6 -2 -8 3 -5 13 8 103 -32 128 -57 10 -9 23 -15 30 -12 7 2 21 -2 32
-10 10 -9 12 -13 6 -9 -7 3 -13 4 -13 1 0 -3 18 -15 40 -26 22 -11 40 -22 40
-24 0 -7 -24 -1 -47 12 -36 20 -27 6 12 -18 58 -36 124 -94 158 -140 25 -35
15 -28 -48 33 -44 43 -100 89 -125 103 -124 67 -214 105 -255 109 -26 3 -51 7
-56 11 -5 3 -9 0 -9 -5 0 -6 9 -11 19 -11 11 0 22 -4 25 -9 3 -5 15 -7 25 -4
11 3 28 0 38 -6 15 -9 13 -10 -12 -6 -23 5 -18 -1 25 -24 72 -39 57 -40 -20
-1 -47 24 -65 28 -80 20 -10 -5 -25 -10 -32 -10 -7 1 1 7 17 15 23 12 24 13 5
8 -14 -4 -43 -7 -65 -6 -22 0 -32 -1 -22 -4 9 -2 15 -8 13 -12 -3 -4 -38 1
-78 11 -40 11 -116 21 -169 23 -53 3 -107 9 -120 14 -13 4 -29 6 -35 4 -7 -2
-15 1 -19 6 -3 6 -11 9 -16 6 -5 -4 -9 -2 -9 3 0 6 -7 12 -15 15 -11 5 -12 1
-4 -19 14 -38 49 -63 89 -65 21 -1 27 -3 16 -6 -14 -4 -6 -10 30 -23 27 -10
58 -21 69 -25 19 -7 19 -7 -1 8 -11 9 -33 19 -47 22 -15 4 -27 11 -27 16 0 12
105 -32 120 -50 3 -4 18 -15 33 -25 42 -26 27 -30 -28 -6 -51 22 -92 23 -87 2
1 -6 -3 -12 -10 -12 -6 0 1 -15 18 -32 16 -18 6 -12 -21 13 -58 53 -100 81
-109 72 -3 -4 4 -18 16 -32 16 -18 12 -16 -12 6 -37 33 -123 66 -99 37 14 -17
-2 -19 -19 -2 -6 6 -15 8 -19 4 -5 -4 8 -21 27 -37 19 -16 30 -29 26 -29 -5 0
-1 -10 10 -21 19 -22 19 -22 -1 -11 -11 6 -36 26 -54 46 -35 36 -58 48 -46 24
4 -7 0 -5 -8 5 -11 13 -16 15 -19 5 -6 -16 21 -60 32 -53 5 3 12 0 16 -6 5 -8
-3 -10 -26 -7 l-34 5 25 -20 c15 -13 18 -18 7 -14 -10 4 -18 2 -18 -3 0 -5
-15 -1 -34 9 -33 19 -41 13 -22 -17 5 -8 -10 -4 -35 9 -41 20 -43 20 -26 2 25
-29 21 -38 -9 -18 -14 9 -37 19 -51 21 -23 4 -24 2 -21 -33 2 -27 -1 -37 -10
-35 -10 2 -12 -7 -8 -30 4 -31 4 -32 -10 -14 -13 19 -14 19 -14 1 0 -17 -1
-17 -20 0 -11 10 -20 24 -20 31 0 7 -5 16 -10 19 -13 8 -9 -57 4 -66 4 -4 9
-20 10 -36 2 -16 6 -36 11 -44 5 -8 -3 -4 -17 9 -19 17 -27 20 -30 10 -4 -10
-11 -8 -32 6 -16 10 -25 12 -21 5 5 -8 4 -10 -4 -5 -9 6 -9 11 0 22 9 11 15
12 26 3 11 -10 12 -8 7 6 -6 14 -4 16 6 10 9 -5 11 -4 6 4 -4 6 0 14 8 17 17
7 21 29 8 38 -12 7 -53 -5 -47 -14 3 -5 -3 -7 -12 -6 -17 3 -33 -10 -33 -28 0
-5 8 -2 18 5 15 13 16 12 3 -3 -7 -10 -17 -15 -22 -12 -5 3 -14 -8 -21 -23 -7
-15 -16 -31 -21 -34 -5 -3 -8 -9 -8 -13 3 -22 -2 -28 -8 -11 -5 13 -3 29 7 45
11 18 12 22 2 13 -8 -7 -19 -13 -24 -13 -6 0 6 12 27 26 21 14 36 31 34 37 -2
6 10 21 27 33 17 11 30 26 29 32 -2 7 4 12 12 12 7 0 18 7 23 17 6 10 16 14
26 10 10 -4 14 -3 11 3 -3 5 6 17 20 26 13 9 23 20 20 24 -3 4 7 15 21 25 24
16 25 18 10 40 -15 22 -15 24 1 18 11 -5 14 -3 8 6 -6 10 -3 11 14 2 25 -14
28 -23 4 -15 -15 5 -15 4 -3 -4 18 -14 33 -4 25 15 -4 12 -2 13 8 5 10 -9 20
-5 40 14 15 14 32 22 39 18 6 -4 8 -3 5 3 -8 13 17 36 28 25 5 -4 5 -2 2 4
-11 19 29 45 71 47 22 0 38 5 35 9 -2 5 8 6 24 2 25 -7 27 -6 14 9 -7 10 -12
17 -10 18 2 0 18 2 34 5 17 2 39 5 50 7 11 2 32 1 47 -4 19 -5 28 -3 32 7 3 9
1 12 -4 9 -6 -3 -10 -1 -10 4 0 14 13 14 44 -1 21 -9 29 -8 44 5 12 11 34 15
76 14 40 -1 61 2 64 11 2 7 8 10 13 7 5 -3 19 0 31 7 13 6 30 13 38 14 8 2 31
7 50 13 19 5 51 14 70 19 33 10 32 10 -23 11 -37 1 -56 -3 -52 -9 4 -6 -5 -10
-22 -8 -15 1 -56 -12 -91 -29 -35 -17 -57 -24 -51 -16 10 12 10 16 -2 24 -10
7 -7 8 11 4 15 -3 49 4 84 19 55 23 73 24 232 25 128 0 186 -4 225 -15z m-823
-846 c-7 -20 53 -80 67 -68 14 12 26 3 19 -14 -3 -7 2 -19 11 -26 12 -10 18
-10 30 0 8 7 12 17 8 24 -3 6 3 3 14 -7 11 -9 22 -15 25 -12 2 3 5 -2 5 -10 0
-8 -5 -11 -11 -7 -12 7 -36 12 -36 7 0 -2 14 -10 30 -19 17 -8 28 -11 26 -7
-3 4 -1 13 4 21 7 11 13 9 29 -11 14 -16 19 -18 15 -6 -6 17 10 24 20 8 3 -5
14 -7 25 -4 11 3 27 -4 39 -17 11 -12 22 -17 26 -11 4 6 17 6 35 1 16 -4 32
-6 34 -3 3 2 8 -1 13 -8 4 -7 3 -10 -3 -6 -5 3 -10 0 -10 -8 0 -8 5 -11 11 -7
6 3 19 5 30 3 12 -2 16 1 11 9 -4 7 5 4 19 -5 15 -10 31 -26 37 -37 5 -10 14
-16 18 -13 5 3 12 -7 16 -22 5 -21 8 -24 16 -12 8 12 10 12 19 -1 5 -8 10 -23
10 -33 0 -16 2 -17 15 -3 18 18 20 30 3 20 -9 -6 -9 -3 1 9 7 9 11 23 8 32 -4
8 -2 17 3 20 6 4 10 11 10 16 0 6 -5 7 -12 3 -7 -4 -8 -3 -4 4 15 25 26 10 26
-38 0 -55 9 -62 37 -27 18 22 50 37 38 17 -9 -14 4 -52 16 -44 6 3 9 15 7 26
-2 14 11 31 42 56 25 20 36 27 26 14 -24 -28 -10 -29 21 -1 18 18 25 20 37 10
14 -11 13 -16 -1 -37 -15 -23 -41 -35 -27 -13 5 8 -1 10 -19 7 -15 -3 -28 -1
-31 4 -2 5 -3 3 -2 -4 2 -7 10 -12 17 -10 8 2 3 -7 -10 -19 -17 -16 -21 -24
-11 -27 7 -3 19 3 25 12 7 9 20 16 29 16 16 0 71 55 71 71 0 4 4 11 9 16 5 4
6 3 3 -3 -5 -8 2 -11 17 -10 13 0 22 4 20 8 -2 4 1 10 8 14 19 12 69 14 63 3
-11 -17 28 -9 41 9 13 16 14 16 7 -2 -5 -16 -3 -18 15 -14 16 5 20 2 17 -14
-4 -19 -3 -19 14 -4 10 9 20 14 23 11 3 -3 22 3 42 14 20 12 36 16 36 11 0 -6
-7 -13 -16 -17 -12 -5 -13 -7 -2 -14 7 -5 22 -2 36 7 12 8 27 12 32 9 6 -3 10
-2 10 4 0 6 7 8 15 5 8 -4 23 -3 33 1 9 4 36 8 60 10 28 1 47 8 57 21 11 14
14 15 9 3 -3 -10 -1 -20 5 -24 7 -3 11 2 11 14 0 15 5 19 21 16 29 -6 37 -15
13 -15 -16 0 -16 -2 4 -16 13 -9 26 -13 29 -10 4 3 1 6 -6 6 -8 0 -11 6 -7 16
4 10 0 21 -10 28 -13 10 -9 12 21 14 24 2 34 -1 30 -8 -3 -6 -12 -7 -18 -3 -7
4 5 -13 26 -37 20 -24 37 -48 37 -52 0 -5 5 -6 11 -2 7 4 10 1 7 -7 -3 -8 -13
-12 -23 -11 -16 3 -17 1 -6 -12 7 -8 18 -13 25 -10 8 3 17 -3 20 -13 5 -13 4
-15 -4 -7 -12 12 -50 7 -50 -7 0 -4 5 -11 12 -15 7 -5 8 -3 3 6 -5 8 -4 11 3
6 6 -4 8 -14 5 -23 -5 -12 -3 -14 8 -8 12 8 12 6 0 -8 -7 -9 -9 -17 -4 -17 5
0 9 -9 9 -19 0 -15 -3 -17 -13 -9 -11 8 -12 7 -7 -7 5 -11 4 -16 -3 -12 -15 9
-11 -45 5 -61 6 -7 12 -22 12 -31 0 -10 3 -33 6 -51 7 -31 6 -32 -15 -21 -12
7 -19 17 -15 23 4 7 9 6 15 -3 10 -16 12 -8 3 15 -6 15 -8 15 -21 -1 -14 -17
-14 -17 -8 2 5 15 3 17 -5 9 -8 -8 -9 -18 -2 -30 5 -11 7 -26 5 -34 -4 -12 -3
-12 5 -1 7 10 10 6 10 -13 0 -14 -5 -26 -10 -26 -5 0 -6 6 -2 13 6 9 5 9 -8 0
-8 -7 -18 -10 -21 -6 -4 3 -7 1 -7 -6 0 -8 7 -11 15 -7 8 3 15 1 15 -4 0 -5 8
-7 18 -4 15 5 15 4 -1 -6 -14 -9 -16 -15 -6 -26 11 -13 8 -17 -7 -11 -11 4
-26 -46 -16 -52 11 -7 32 -46 32 -58 -1 -4 -8 5 -16 20 -16 29 -41 32 -36 4 2
-9 -2 -26 -8 -36 -7 -13 -7 -22 0 -26 6 -4 8 -10 5 -15 -3 -4 3 -7 12 -5 10 1
26 -2 36 -7 12 -6 17 -5 17 4 0 9 3 9 9 -2 6 -8 8 -17 5 -22 -2 -4 -5 -23 -6
-43 -1 -20 -6 -39 -11 -42 -6 -4 -8 0 -4 9 4 11 -1 16 -19 16 -27 0 -40 -13
-24 -23 5 -3 10 -11 10 -16 0 -6 -4 -7 -10 -4 -6 3 -10 -4 -10 -17 0 -13 4
-18 8 -13 4 6 13 11 20 13 10 2 10 -2 0 -17 -7 -11 -17 -17 -23 -14 -5 4 -7 2
-2 -2 4 -5 0 -17 -9 -27 -13 -14 -14 -21 -5 -32 19 -23 47 -16 49 13 1 13 9
33 19 43 9 10 11 18 6 18 -6 0 -13 -7 -17 -15 -3 -8 -10 -15 -16 -15 -12 0 14
50 42 80 11 11 14 21 8 25 -6 4 -4 17 5 34 8 16 11 32 7 36 -4 5 -2 5 5 1 9
-5 10 3 6 29 -4 23 -2 35 6 35 6 0 11 -2 11 -4 0 -2 3 -12 7 -22 4 -12 3 -15
-5 -10 -8 5 -10 2 -6 -8 9 -22 27 -8 21 16 -4 12 -1 18 6 15 7 -2 11 -11 11
-20 -1 -9 4 -18 12 -21 20 -8 1 36 -21 49 -27 14 -62 47 -48 43 6 -2 19 6 28
17 9 11 14 14 10 8 -3 -7 -1 -13 4 -13 6 0 11 -8 11 -18 0 -10 8 -27 18 -38 9
-10 16 -26 16 -34 -1 -8 -2 -21 -3 -28 0 -7 -5 -11 -10 -7 -5 3 -13 0 -17 -6
-4 -7 -3 -9 4 -5 19 11 43 -23 35 -52 -3 -15 -6 -32 -6 -39 0 -7 -4 -13 -9
-13 -4 0 -3 -9 4 -20 14 -23 2 -41 -13 -20 -9 13 -10 13 -6 -1 3 -9 0 -22 -6
-28 -9 -9 -8 -11 4 -6 13 5 16 -2 17 -35 1 -23 9 -48 18 -57 8 -9 12 -19 7
-22 -12 -9 -48 -74 -57 -103 -7 -22 -26 -24 -26 -2 0 9 5 12 12 8 7 -4 8 -3 4
4 -4 7 -14 12 -23 12 -13 0 -14 2 -2 17 10 12 10 14 1 9 -7 -4 -15 -1 -18 9
-6 13 -8 14 -15 3 -7 -10 -9 -8 -9 6 0 16 -2 17 -17 5 -15 -12 -16 -12 -9 6 6
16 5 17 -5 8 -9 -9 -8 -18 6 -40 l18 -28 -23 20 c-22 19 -23 19 -17 1 8 -21
-3 -20 -91 12 -51 19 -52 20 -23 24 16 2 28 1 25 -4 -3 -4 4 -8 15 -8 11 0 23
4 26 10 4 6 -1 7 -11 3 -11 -4 -15 -2 -11 4 4 7 -10 10 -43 10 -27 0 -48 -3
-45 -5 2 -2 0 -15 -5 -27 -6 -16 -5 -25 3 -29 7 -3 -10 -3 -38 1 -27 3 -51 7
-53 8 -2 2 -27 -7 -55 -21 -29 -13 -53 -20 -55 -15 -3 8 -72 -11 -104 -29 -14
-8 -16 -6 -11 8 6 15 5 16 -13 2 -10 -8 -45 -41 -76 -74 -47 -50 -56 -65 -53
-90 4 -31 -9 -25 -19 9 -3 12 -4 9 -2 -8 2 -15 -1 -30 -5 -33 -5 -3 -9 3 -10
13 0 10 -6 0 -14 -22 -7 -22 -13 -36 -14 -31 -2 15 -40 -30 -51 -59 -5 -14
-12 -44 -14 -68 -2 -23 -7 -50 -11 -60 -6 -13 -3 -16 9 -11 14 5 15 0 9 -41
-5 -38 -3 -47 8 -43 7 2 16 15 19 29 6 24 6 24 18 3 6 -12 9 -24 7 -28 -3 -3
1 -2 7 4 9 8 9 13 0 22 -34 34 16 118 70 118 26 0 29 -2 18 -15 -10 -12 -10
-19 -2 -27 9 -9 12 -8 12 5 0 15 11 22 33 18 4 0 7 3 7 9 0 5 5 10 12 10 6 0
26 11 44 25 l33 26 14 -33 c15 -35 44 -65 53 -55 3 3 -1 16 -10 29 -20 29 -21
44 -1 24 9 -8 14 -17 13 -19 -2 -2 3 -12 11 -21 10 -12 27 -16 63 -15 43 2 51
6 69 35 20 33 49 37 49 8 0 -8 9 -14 21 -14 11 0 26 -6 32 -12 16 -17 21 -48
7 -48 -5 0 -10 -7 -10 -16 0 -14 2 -15 17 -3 15 13 15 12 4 -8 -6 -13 -9 -23
-5 -23 3 0 1 -7 -6 -15 -8 -10 -9 -15 -2 -15 6 0 15 6 19 13 13 20 46 34 71
30 15 -2 21 1 16 8 -5 8 3 10 25 7 27 -4 31 -2 31 19 0 16 8 27 25 33 14 5 25
15 25 22 0 9 -3 9 -11 -2 -9 -13 -10 -13 -6 0 2 8 12 14 21 12 9 -2 19 4 22
12 5 12 11 13 25 5 10 -5 19 -6 19 -2 0 5 11 10 26 11 15 1 23 -2 19 -8 -4 -6
-10 -8 -15 -5 -5 3 -11 1 -15 -4 -3 -6 3 -8 15 -6 13 3 20 -1 20 -12 0 -11 6
-14 21 -10 14 4 19 2 16 -8 -3 -7 -1 -17 4 -22 7 -7 5 -16 -6 -27 -9 -9 -12
-16 -7 -16 5 0 9 -7 9 -15 0 -8 -5 -11 -10 -8 -6 4 -8 -3 -5 -15 4 -12 2 -20
-3 -16 -5 3 -9 0 -9 -5 0 -6 7 -11 16 -11 12 0 14 -3 6 -13 -6 -7 -8 -24 -5
-37 4 -16 3 -21 -6 -16 -6 4 -9 13 -5 19 3 7 -2 3 -10 -7 -12 -14 -13 -23 -5
-33 11 -13 10 -14 -11 -17 -6 0 -15 -8 -20 -16 -6 -10 -2 -19 18 -32 24 -15
24 -17 5 -15 -12 0 -19 5 -16 11 3 5 1 6 -5 3 -6 -4 -8 -23 -5 -45 4 -27 1
-42 -11 -51 -16 -14 -23 -36 -8 -27 5 3 9 -1 9 -8 0 -8 -6 -12 -12 -9 -8 2
-14 -8 -17 -26 -3 -17 -1 -31 3 -31 4 0 5 -9 2 -21 -4 -16 -8 -17 -14 -7 -7
10 -9 9 -9 -4 0 -10 6 -18 13 -19 10 0 10 -2 0 -6 -7 -2 -13 -10 -13 -17 0 -7
-5 -17 -12 -24 -10 -10 -15 -7 -25 10 -10 19 -12 20 -13 5 0 -12 -4 -16 -12
-10 -7 4 -5 -5 5 -21 18 -27 18 -27 -2 -17 -11 6 -22 23 -24 39 -3 21 -4 21
-1 -3 1 -16 6 -43 10 -59 5 -22 4 -27 -6 -21 -10 6 -12 1 -8 -19 3 -14 1 -26
-3 -26 -5 0 -9 -7 -9 -16 0 -8 -4 -13 -9 -10 -10 7 -21 -17 -21 -45 0 -11 5
-17 10 -14 16 10 12 0 -11 -26 l-22 -24 6 23 c3 12 1 22 -3 22 -5 0 -9 -35 -8
-77 0 -43 -3 -91 -6 -108 -9 -39 -10 -130 -3 -142 3 -5 -3 -17 -13 -26 -19
-16 -18 -53 1 -41 5 3 9 0 9 -6 0 -6 4 -9 8 -6 4 2 8 -4 8 -14 0 -10 -5 -16
-11 -14 -7 3 -10 -9 -9 -33 2 -21 0 -27 -2 -13 -3 14 -8 32 -11 40 -4 8 -7 18
-7 22 -3 19 -16 18 -16 -1 l0 -23 -20 23 c-10 13 -19 19 -20 12 0 -6 5 -13 11
-15 14 -5 -11 -52 -40 -77 -12 -11 -22 -22 -22 -25 2 -23 -14 -69 -25 -73 -8
-3 -14 -9 -14 -15 0 -5 6 -6 13 -3 6 4 4 0 -5 -8 -10 -8 -14 -18 -10 -23 4 -4
-1 -3 -10 4 -14 11 -16 10 -11 -6 2 -11 -2 -31 -11 -44 -9 -14 -13 -29 -9 -33
5 -5 0 -3 -10 4 -15 12 -17 12 -11 -5 5 -15 4 -16 -4 -5 -6 8 -9 27 -7 41 2
15 -1 33 -6 41 -5 8 -9 9 -9 4 0 -21 -40 -13 -59 11 -11 14 -22 21 -25 15 -3
-5 1 -14 9 -21 8 -7 12 -16 9 -21 -3 -5 2 -6 11 -3 10 4 14 2 10 -8 -3 -8 1
-21 10 -28 17 -14 21 0 4 17 -9 9 -7 11 7 9 27 -4 28 -22 2 -47 -13 -12 -17
-19 -10 -15 6 4 12 2 12 -3 0 -14 -17 -14 -25 -1 -13 22 -23 9 -15 -20 5 -17
5 -30 0 -30 -13 0 -3 -42 12 -52 8 -5 9 -8 2 -8 -14 0 -39 28 -31 36 3 3 -1
17 -8 31 -8 15 -11 31 -8 37 4 7 1 6 -6 0 -10 -9 -10 -17 -2 -32 6 -10 8 -22
5 -25 -3 -3 -1 -14 5 -26 8 -14 8 -22 -1 -27 -6 -4 -9 -3 -6 2 3 5 0 15 -8 22
-10 9 -14 9 -14 1 0 -8 -5 -7 -16 2 -15 12 -16 11 -9 -11 7 -23 6 -24 -9 -11
-9 8 -16 10 -15 5 4 -21 -2 -35 -12 -28 -8 4 -9 0 -4 -15 10 -33 -4 -44 -26
-19 -12 13 -18 17 -14 11 7 -16 4 -16 -30 -3 -24 9 -25 8 -15 -10 6 -11 8 -20
4 -20 -4 0 0 -8 9 -18 14 -15 15 -19 2 -19 -8 0 -12 4 -9 8 2 4 0 10 -6 14 -6
4 -8 10 -5 15 3 5 1 11 -5 15 -6 4 -10 -4 -10 -19 0 -14 -4 -28 -10 -31 -6 -3
-10 -1 -10 5 0 7 -7 10 -15 6 -8 -3 -15 -1 -15 4 0 6 -5 10 -10 10 -6 0 -5 -8
2 -19 7 -11 15 -18 19 -15 4 2 10 0 13 -5 4 -5 2 -12 -3 -16 -6 -3 -8 -13 -5
-23 5 -14 4 -14 -4 -2 -6 8 -8 18 -5 24 4 5 1 6 -7 1 -7 -5 -11 -4 -7 1 3 5
-5 22 -17 37 -15 19 -23 23 -23 13 0 -9 4 -16 8 -16 6 0 39 -55 39 -65 0 -1
-7 -2 -15 -2 -8 0 -13 3 -11 6 1 3 -6 14 -16 24 -12 12 -19 14 -17 5 3 -26 -1
-39 -11 -33 -6 3 -8 25 -5 48 2 23 2 33 -1 22 -13 -49 -15 -51 -27 -34 -20 27
-44 -16 -25 -46 3 -5 1 -19 -3 -30 -9 -19 -9 -19 -6 1 3 11 -2 29 -10 40 -14
19 -15 19 -13 -1 4 -39 -2 -39 -14 0 -8 27 -18 40 -31 42 -16 1 -16 1 -2 -3 9
-3 17 -12 17 -19 0 -7 3 -21 7 -31 4 -12 3 -15 -5 -10 -7 4 -12 1 -12 -8 0 -9
-4 -16 -10 -16 -13 0 -13 13 1 27 6 6 8 16 5 22 -9 14 -26 14 -26 0 0 -5 6 -7
13 -3 8 5 8 2 -2 -9 -20 -26 -24 -21 -18 23 3 22 1 43 -5 46 -5 3 -8 15 -5 25
3 11 1 17 -3 14 -5 -3 -10 1 -13 7 -3 10 -8 10 -18 -1 -9 -9 -9 -11 -1 -7 15
9 15 1 2 -25 -13 -23 -32 -26 -23 -2 4 11 3 14 -5 9 -15 -9 -16 6 -1 21 8 8 8
13 0 18 -6 3 -11 3 -10 -2 4 -20 -2 -27 -12 -13 -9 13 -10 13 -6 -1 4 -11 -3
-20 -19 -28 -15 -7 -22 -16 -18 -23 4 -6 3 -8 -4 -4 -11 6 -9 37 4 57 4 7 0 9
-14 5 -17 -6 -19 -3 -15 14 4 14 8 17 13 10 8 -14 25 5 32 37 5 19 3 20 -12
10 -10 -6 -16 -15 -14 -19 3 -4 0 -8 -5 -8 -11 0 -15 13 -12 35 1 11 -37 -31
-56 -61 -11 -18 -12 -18 -12 5 -1 13 7 30 16 37 10 7 15 15 12 19 -4 3 -15 -2
-25 -12 -9 -10 -21 -18 -26 -18 -5 0 -13 -7 -18 -15 -8 -12 -10 -12 -11 5 -1
11 -3 25 -3 32 -3 29 -22 32 -49 7 -34 -31 -49 -24 -37 17 9 31 9 31 -10 14
-11 -10 -20 -25 -21 -34 0 -10 -2 -12 -6 -3 -2 6 -9 10 -14 6 -5 -3 -9 4 -9
15 0 18 -21 23 -36 8 -11 -11 -24 -8 -24 5 0 6 3 9 6 5 4 -3 13 0 20 8 19 18
18 31 -1 15 -8 -7 -15 -9 -15 -5 0 4 -8 2 -17 -5 -10 -8 -3 1 15 19 37 37 37
37 17 45 -8 3 -14 0 -12 -6 1 -6 -4 -13 -12 -16 -9 -3 -11 0 -6 8 6 10 2 12
-13 8 l-22 -6 21 29 c17 24 18 29 5 29 -9 0 -16 5 -16 11 0 5 4 8 8 5 4 -2 8
4 9 14 1 11 -2 22 -8 25 -5 3 -6 -1 -3 -9 3 -9 2 -16 -2 -17 -5 0 -16 -2 -24
-4 -12 -2 -15 5 -14 25 1 22 -2 27 -14 23 -10 -4 -13 -2 -8 5 4 7 3 12 -3 12
-5 0 -11 6 -14 13 -2 6 -3 4 -2 -5 3 -20 -12 -23 -35 -8 -9 6 -11 10 -3 10 7
0 10 7 6 16 -4 11 -8 12 -13 4 -5 -8 -9 -6 -14 5 -3 10 -1 25 6 33 10 13 10
14 0 8 -7 -4 -15 -1 -18 8 -3 9 -10 14 -14 11 -5 -3 -12 4 -15 16 -6 17 -9 19
-16 8 -7 -11 -9 -9 -10 6 -4 48 -17 85 -30 85 -5 0 -9 -10 -9 -22 0 -16 -3
-19 -9 -10 -4 7 -6 25 -3 39 3 18 1 24 -7 19 -6 -4 -11 -1 -11 9 0 9 5 13 10
10 16 -10 12 11 -5 25 -8 7 -15 20 -16 29 -1 9 -4 5 -9 -9 -12 -38 -11 -52 3
-44 6 4 9 4 5 -1 -4 -4 -3 -17 3 -29 9 -19 9 -19 -4 -3 -23 28 -30 20 -24 -25
3 -23 2 -36 -2 -29 -6 9 -10 10 -14 2 -3 -7 -4 -7 -3 1 2 7 -3 28 -10 47 -16
39 -18 65 -4 56 6 -3 7 1 4 10 -5 11 -10 13 -19 5 -10 -9 -13 -7 -10 7 11 54
13 93 4 88 -5 -4 -9 -19 -9 -35 0 -16 -5 -32 -12 -36 -7 -4 -8 -3 -4 4 12 19
-3 35 -20 21 -10 -8 -14 -8 -14 0 0 6 5 11 11 11 7 0 8 11 4 30 -5 22 -3 30 7
30 8 1 7 5 -5 15 -15 11 -17 17 -7 32 10 16 11 16 6 1 -4 -13 0 -18 14 -18 18
0 25 -10 21 -33 -3 -18 17 -5 28 19 10 22 9 26 -3 21 -10 -4 -13 -1 -9 8 3 8
10 12 17 8 6 -4 4 2 -4 12 -9 11 -10 16 -2 11 7 -4 12 -2 12 6 0 7 7 0 15 -16
8 -15 15 -37 15 -47 0 -11 5 -19 11 -19 5 0 7 5 4 10 -11 17 7 11 21 -7 13
-16 13 -15 5 7 -5 14 -15 24 -22 22 -8 -2 -5 5 6 18 11 12 15 21 10 20 -22 -5
-25 1 -14 21 6 13 7 19 1 15 -6 -3 -12 0 -15 6 -3 7 -5 2 -4 -12 0 -14 5 -31
11 -39 9 -11 8 -13 -4 -9 -17 5 -32 98 -16 98 6 0 5 5 -2 12 -7 7 -12 21 -12
32 0 17 -2 18 -10 6 -8 -12 -10 -11 -10 8 0 20 3 21 21 12 11 -7 23 -9 27 -6
3 3 0 6 -6 6 -6 0 -9 8 -6 18 5 14 4 15 -5 2 -7 -10 -11 -11 -11 -3 0 7 -6 11
-12 9 -7 -1 -10 -1 -5 1 4 3 7 12 7 21 0 15 2 15 10 2 6 -10 8 -3 6 25 -2 22
-4 42 -5 44 -1 2 -7 -2 -14 -8 -8 -6 -18 -7 -22 -3 -5 4 -5 1 -1 -6 6 -10 11
-10 22 -1 20 16 18 -5 -2 -25 -8 -9 -13 -20 -10 -25 3 -5 -1 -11 -9 -15 -11
-4 -15 2 -15 25 0 19 -4 28 -11 23 -8 -5 -8 -1 0 14 8 14 8 23 1 27 -6 4 -10
12 -9 18 3 27 -2 38 -14 31 -7 -5 -6 0 3 11 12 15 12 17 1 10 -11 -6 -13 -4
-8 8 3 10 2 17 -4 17 -6 0 -8 4 -5 9 3 5 -1 12 -10 15 -8 3 -12 11 -8 17 4 8
-1 9 -17 4 -17 -4 -20 -3 -10 3 9 7 10 12 2 16 -6 4 -11 15 -11 24 0 15 2 15
10 2 7 -10 10 -11 10 -2 0 7 -7 15 -15 18 -18 7 -19 36 -4 67 10 22 10 22 -6
2 -16 -19 -17 -19 -10 12 4 22 3 33 -5 33 -6 0 -9 -4 -5 -9 3 -5 2 -12 -3 -15
-4 -2 -9 5 -11 17 -7 46 -3 79 10 88 8 5 9 9 3 9 -6 0 -19 -10 -28 -23 -9 -12
-14 -17 -11 -10 3 6 0 24 -6 40 -19 46 -21 92 -5 115 16 22 11 51 -8 42 -6 -3
-3 1 7 9 16 13 15 15 -13 20 -16 4 -30 12 -30 19 0 9 3 9 11 1 9 -9 16 -8 27
4 12 12 13 16 2 23 -9 6 -5 9 16 12 18 2 28 8 26 16 -2 9 7 7 24 -7 14 -11 41
-23 60 -27 19 -3 37 -10 40 -15 3 -5 -1 -6 -9 -3 -8 3 -18 0 -22 -6 -3 -6 -3
-10 2 -9 20 3 27 -2 13 -11 -21 -13 -5 -23 34 -22 21 1 42 -6 56 -18 28 -25
34 -25 26 -2 -6 16 -5 16 8 -1 10 -14 15 -15 19 -5 4 10 8 10 16 -2 10 -13 11
-13 11 0 0 13 1 13 10 0 8 -11 10 -7 8 16 -2 36 25 84 48 84 8 0 22 7 30 15
13 13 18 12 37 -10 22 -26 37 -29 132 -23 34 3 42 7 54 36 18 39 30 40 62 5
17 -18 19 -24 7 -20 -31 11 -28 -7 3 -20 41 -17 103 -17 96 0 -3 6 -8 20 -12
30 -4 10 -3 17 4 17 6 0 11 -4 11 -10 0 -5 8 -10 18 -10 21 0 58 -32 66 -57 6
-20 65 -57 75 -48 3 3 -1 10 -8 14 -8 5 -10 14 -6 21 5 8 4 11 -2 7 -6 -4 -14
0 -17 9 -4 11 -2 15 8 11 14 -6 14 -7 2 102 -5 42 -32 81 -55 81 -6 0 -8 6 -5
14 6 15 -51 63 -68 58 -5 -1 -7 2 -3 7 3 6 11 8 19 5 7 -3 13 2 13 10 0 8 -3
15 -6 14 -3 0 -14 0 -25 1 -14 1 -16 4 -7 15 9 10 7 17 -6 27 -16 13 -17 12
-4 -3 21 -28 6 -22 -65 27 -36 25 -69 43 -74 40 -5 -3 -11 -1 -15 5 -4 7 -12
7 -23 1 -11 -6 -25 -5 -43 4 -15 8 -29 12 -31 9 -3 -2 -17 0 -31 5 -17 7 -28
7 -32 1 -11 -17 -45 8 -39 28 4 10 2 13 -3 7 -12 -15 -33 -16 -27 -2 3 9 -3
13 -18 12 -13 -1 -22 -6 -21 -11 1 -5 -14 -10 -32 -11 -23 -2 -35 2 -39 13 -5
13 -1 15 18 10 14 -3 28 -1 32 6 4 6 3 8 -4 4 -6 -3 -21 -2 -35 3 -23 9 -68 3
-109 -14 -13 -5 -18 -2 -18 9 0 9 5 16 12 16 6 0 8 3 5 6 -4 4 -14 1 -24 -7
-15 -13 -16 -12 -8 6 4 11 8 31 8 45 l-1 25 14 -27 c8 -16 17 -28 20 -28 2 0
0 8 -5 19 -6 10 -8 20 -6 23 3 3 -6 10 -19 16 -23 10 -25 9 -25 -21 0 -64 -2
-69 -23 -51 -11 11 -16 26 -14 40 3 14 0 24 -7 24 -7 0 -6 4 3 9 8 6 17 8 21
5 4 -2 10 0 14 6 3 5 1 10 -4 10 -6 0 -10 3 -10 8 3 19 -2 29 -16 29 -8 0 -15
-4 -15 -9 0 -4 5 -8 10 -8 6 0 10 -7 10 -16 0 -8 -4 -13 -9 -9 -6 3 -15 -3
-21 -12 -10 -16 -10 -16 -5 2 3 12 -4 37 -14 58 -10 20 -15 37 -10 37 5 0 9 4
9 10 0 5 -3 9 -7 9 -5 -1 -15 -1 -23 0 -12 1 -11 5 5 18 20 15 20 15 -1 11
-16 -4 -21 -1 -20 15 1 11 9 21 19 23 22 3 36 14 19 14 -24 0 -11 16 14 18 23
2 25 0 14 -13 -11 -13 -10 -14 4 -9 14 6 16 2 10 -22 -4 -16 -11 -30 -16 -32
-16 -7 -8 -23 10 -20 10 3 32 -11 54 -34 37 -38 56 -50 42 -25 -5 8 -2 8 9 -2
13 -10 17 -10 17 -1 0 7 7 10 15 6 11 -4 15 0 13 12 -2 9 -5 19 -8 22 -14 13
-29 61 -24 75 4 8 1 15 -6 15 -7 0 -10 7 -6 15 7 18 -5 20 -22 3 -8 -8 -12 -8
-12 -1 0 13 28 25 41 17 5 -3 7 -10 4 -15 -4 -5 -1 -9 6 -9 6 0 9 8 6 20 -3
11 -1 22 4 26 5 3 3 11 -4 18 -15 17 -28 11 -20 -9 3 -8 -1 -15 -8 -15 -7 0
-9 3 -6 6 3 4 2 16 -4 27 -8 14 -8 18 0 13 6 -4 11 -2 11 4 0 6 5 8 11 4 8 -4
8 0 0 15 -7 12 -9 26 -6 31 3 6 2 10 -3 10 -5 0 -6 14 -4 31 4 24 2 30 -8 24
-10 -6 -12 -4 -7 8 3 9 2 27 -4 39 l-10 23 5 -22 c2 -14 -1 -23 -8 -23 -15 0
-13 44 3 63 9 12 9 16 -1 20 -10 4 -10 8 2 17 13 10 13 11 -2 6 -10 -3 -18 -1
-18 5 0 6 -5 7 -12 3 -7 -4 -8 -3 -4 5 4 6 12 9 17 6 5 -4 9 1 9 9 0 9 0 19 1
23 0 4 -9 11 -22 15 -19 7 -20 6 -9 -7 7 -8 17 -12 23 -8 6 4 7 1 2 -6 -11
-18 -58 28 -52 51 3 10 1 21 -4 24 -6 3 -5 12 3 22 10 12 10 14 1 8 -10 -5
-13 3 -14 31 -1 21 0 43 1 48 2 6 3 20 4 32 1 12 5 25 9 29 4 5 5 0 1 -11 -7
-17 -6 -18 8 -5 10 10 12 17 6 21 -6 4 -8 19 -6 33 4 21 3 24 -8 15 -8 -6 -14
-9 -14 -6 0 3 -3 12 -6 20 -3 8 2 17 12 21 15 6 15 4 3 -11 -13 -16 -12 -17 3
-5 10 8 17 17 16 20 -2 19 3 33 11 28 11 -7 33 18 29 35 -2 7 15 19 37 28 22
8 42 19 43 23 2 4 12 8 22 8 10 0 22 5 26 12 4 7 3 8 -4 4 -7 -4 -20 -2 -29 4
-16 10 -16 11 2 6 l20 -6 -20 16 c-12 10 -14 14 -5 12 8 -3 28 1 44 9 15 8 26
10 22 5 -3 -5 6 -9 20 -9 13 0 23 2 20 4 -3 3 1 11 7 19 15 17 20 17 15 2z
m1411 -1379 c-18 -11 -11 -11 29 0 20 6 30 6 27 0 -11 -17 6 -31 21 -18 11 9
18 9 26 1 9 -9 9 -12 0 -12 -7 0 -12 -8 -11 -17 0 -11 3 -13 6 -5 2 6 9 12 14
12 4 0 6 -7 3 -15 -4 -8 -13 -15 -21 -15 -8 0 -13 -6 -10 -12 2 -7 9 -12 15
-11 6 2 9 -4 5 -13 -3 -8 -8 -12 -11 -9 -3 3 -14 -2 -24 -12 -10 -9 -18 -12
-18 -7 0 5 -4 3 -9 -5 -13 -20 -83 -18 -183 5 -5 1 -11 3 -15 4 -5 1 -11 2
-15 1 -5 0 -8 4 -8 10 0 5 -4 8 -9 5 -12 -8 -32 17 -23 29 17 23 141 85 171
85 11 0 23 5 26 10 4 6 11 7 17 4 6 -4 5 -10 -3 -15z m-1354 -30 c22 -6 72
-26 111 -46 65 -33 70 -37 61 -57 -9 -19 -19 -22 -81 -24 -39 -1 -83 -5 -98
-8 -17 -3 -28 -1 -28 5 0 6 -5 11 -11 11 -5 0 -7 -6 -3 -12 5 -9 2 -9 -9 1 -9
7 -17 10 -17 5 0 -5 -4 -3 -9 4 -7 12 -25 18 -54 21 -5 1 -5 6 -2 11 7 12 -19
41 -39 44 -15 2 -52 36 -39 36 4 -1 19 -7 33 -15 32 -18 41 -19 34 -1 -4 11 1
13 23 10 53 -9 58 -9 63 1 3 5 -8 13 -25 16 -28 6 -27 7 10 8 22 0 58 -4 80
-10z"/>
<path d="M1864 1992 c-15 -9 -30 -57 -16 -48 15 9 25 -50 19 -107 -4 -32 -1
-49 9 -58 10 -8 14 -8 14 0 0 6 -5 11 -11 11 -5 0 -7 5 -3 11 8 14 34 -29 28
-46 -5 -12 -48 -14 -60 -3 -4 4 -13 3 -19 -2 -16 -14 -85 54 -85 83 0 16 3 18
9 9 7 -11 9 -11 14 2 4 9 2 16 -3 16 -6 0 -10 15 -10 34 0 38 -18 51 -46 32
-11 -7 -32 -16 -48 -20 -25 -6 -68 -36 -51 -36 3 0 -3 -14 -15 -30 -12 -17
-26 -28 -31 -25 -5 4 -9 -5 -9 -19 0 -14 -7 -29 -16 -34 -9 -5 -15 -12 -14
-16 5 -16 -23 -66 -37 -66 -8 0 -12 -4 -9 -9 3 -5 -1 -22 -9 -37 -8 -16 -15
-37 -15 -47 0 -10 -9 -35 -19 -55 -26 -50 -35 -132 -15 -132 8 0 14 9 14 20 0
41 44 133 99 208 31 42 71 100 89 129 18 28 44 59 58 68 13 9 23 19 20 24 -3
4 6 20 19 37 13 16 24 23 25 17 0 -7 -5 -13 -11 -13 -5 0 -7 -4 -4 -10 3 -5 2
-10 -4 -10 -5 0 -9 -9 -8 -19 0 -11 5 -17 11 -14 5 4 6 -5 3 -19 -4 -15 1 -48
12 -81 11 -30 16 -58 13 -62 -4 -3 2 -3 12 1 13 5 17 4 13 -3 -4 -6 0 -13 8
-17 8 -3 12 -12 9 -21 -4 -11 -2 -14 9 -10 21 9 28 -30 10 -52 -13 -17 -14
-16 -8 11 6 26 5 27 -10 12 -9 -9 -21 -14 -26 -11 -5 4 -6 -1 -3 -10 4 -10 -5
-27 -26 -46 -28 -28 -33 -29 -52 -17 -19 13 -24 12 -44 -9 -13 -13 -21 -29
-18 -37 6 -16 -27 -17 -38 -1 -5 6 -8 5 -8 -4 0 -15 -49 -56 -67 -56 -7 0 -12
-3 -10 -7 1 -3 -7 -16 -18 -29 -20 -23 -20 -23 0 -9 19 15 19 14 3 -12 -11
-17 -16 -39 -13 -62 3 -20 1 -36 -5 -36 -6 0 -10 -9 -10 -20 0 -26 15 -25 34
2 15 21 16 21 17 3 0 -11 3 -15 5 -8 4 8 12 7 32 -3 26 -13 29 -13 55 16 15
17 27 27 27 24 0 -4 8 0 18 9 10 9 23 13 30 8 6 -4 30 -7 52 -6 22 1 40 -3 40
-8 0 -5 7 -7 15 -3 8 3 15 0 15 -7 1 -7 6 -5 14 6 19 25 27 21 21 -10 l-5 -28
13 29 c12 25 15 26 21 10 6 -15 9 -16 15 -5 5 7 13 11 19 7 6 -3 13 0 15 6 3
7 6 0 7 -17 1 -28 2 -29 10 -7 11 27 3 26 218 19 35 -1 66 2 69 6 3 4 11 2 20
-4 11 -9 16 -10 22 -1 10 17 82 -3 104 -30 l19 -23 -16 27 c-18 31 -5 48 21
26 14 -11 16 -11 8 1 -6 10 -4 12 4 7 7 -5 10 -14 7 -22 -4 -11 -1 -12 13 -5
12 7 22 6 29 -1 9 -9 12 -7 12 8 0 14 7 20 25 22 14 1 25 -3 25 -8 0 -6 5 -10
11 -10 5 0 7 6 3 13 -4 6 4 3 17 -9 36 -31 58 -37 52 -13 -5 19 7 26 21 12 11
-11 46 -14 46 -4 0 13 40 9 40 -4 1 -14 29 37 30 53 0 7 -4 11 -9 8 -5 -3 -17
6 -26 20 -11 18 -13 24 -4 19 8 -5 -3 9 -23 30 -21 21 -38 42 -38 47 0 5 -4 7
-9 4 -5 -4 -26 13 -46 36 -26 30 -31 34 -18 13 10 -16 24 -36 31 -44 16 -17
62 -88 62 -97 0 -3 -7 1 -15 10 -8 8 -15 18 -15 21 0 4 -9 20 -20 35 -13 19
-27 27 -40 25 -11 -2 -22 1 -26 6 -3 5 0 8 8 7 7 -2 13 4 13 12 0 9 -8 14 -20
12 -15 -2 -17 -1 -6 7 11 7 7 13 -18 25 -17 9 -31 13 -30 9 4 -22 -3 -31 -21
-26 -20 5 -23 12 -36 73 -6 33 -7 34 -15 12 -5 -13 -6 -29 -3 -35 3 -7 -10 6
-30 28 -30 34 -33 41 -18 46 9 4 24 2 32 -4 12 -9 13 -9 3 3 -15 17 -17 34 -3
25 6 -3 10 4 10 17 0 13 7 34 16 46 9 13 11 22 4 22 -7 0 -6 9 3 28 7 15 12
42 10 60 -1 17 2 32 7 32 7 0 7 7 0 21 -10 17 -14 18 -28 7 -15 -12 -16 -11
-3 5 7 9 17 17 22 17 14 0 100 -93 110 -119 8 -20 11 -21 26 -10 12 10 15 10
9 2 -4 -7 -2 -13 3 -13 18 0 12 19 -10 30 -14 8 -17 15 -11 23 7 8 4 20 -9 36
-10 13 -19 20 -19 17 0 -4 -21 9 -46 28 -38 29 -49 33 -64 24 -21 -14 -33 -45
-19 -54 5 -3 7 -10 3 -15 -3 -5 -7 -24 -10 -41 -5 -46 -41 -65 -51 -27 -5 19
-7 19 -37 -8 -17 -15 -28 -24 -24 -19 4 5 0 15 -10 23 -16 12 -16 13 1 7 12
-4 17 -1 17 11 0 11 5 15 16 11 9 -3 12 -2 9 5 -4 5 5 32 19 59 15 28 23 50
18 50 -4 0 -9 14 -10 31 -2 19 2 28 8 24 5 -3 10 -15 10 -26 0 -10 4 -19 9
-19 6 0 8 10 6 23 -5 26 -48 64 -53 48 -2 -6 -8 -8 -14 -5 -6 4 -14 0 -19 -7
-7 -11 -9 -9 -9 6 -1 19 -1 19 -11 2 -8 -13 -7 -22 1 -32 8 -9 8 -29 2 -64 -6
-32 -6 -51 0 -51 11 0 -1 -44 -13 -48 -5 -2 -9 -11 -9 -19 0 -19 -45 -74 -54
-66 -3 4 -6 1 -6 -6 0 -17 -63 -41 -115 -45 -39 -3 -48 1 -84 35 -22 22 -38
39 -35 39 3 0 -2 7 -10 16 -9 8 -14 19 -11 24 3 5 0 12 -6 16 -8 5 -9 3 -4 -6
5 -9 4 -11 -4 -6 -9 6 -9 11 0 22 9 11 9 14 0 14 -7 0 -9 5 -6 10 3 6 2 10 -4
10 -9 0 -5 76 6 94 3 5 1 6 -6 2 -7 -5 -14 4 -18 25 -5 29 -7 31 -15 14 -7
-16 -8 -15 -5 8 3 15 4 27 3 27 0 0 -6 -4 -12 -8z"/>
<path d="M2175 1149 c-4 -5 -11 -7 -16 -4 -5 4 -9 1 -9 -5 0 -6 -5 -8 -12 -4
-8 5 -9 0 -5 -17 5 -22 5 -22 -7 -6 -7 9 -15 17 -18 17 -6 0 -1 -78 6 -96 3
-8 2 -16 -3 -18 -4 -3 -8 0 -9 7 -1 7 -3 27 -4 45 -2 19 -11 39 -19 45 -9 7
-16 16 -17 22 -1 14 -22 19 -22 5 0 -6 4 -9 8 -6 4 2 8 -4 8 -15 0 -10 -6 -19
-12 -19 -6 0 -11 8 -10 18 1 21 -41 18 -64 -4 -13 -14 -13 -15 0 -12 8 2 19 8
23 13 4 6 7 -6 5 -25 -3 -37 -22 -59 -50 -60 -10 0 -18 -5 -18 -11 0 -5 4 -8
9 -4 5 3 12 1 15 -4 3 -5 -1 -11 -8 -14 -12 -5 -12 -11 -3 -30 10 -22 13 -23
24 -8 11 14 12 12 4 -10 -7 -20 -5 -28 11 -38 18 -11 18 -10 7 11 l-11 23 21
-23 c13 -12 27 -19 34 -15 7 4 5 -2 -3 -13 -22 -29 -24 -30 -17 -11 7 19 -8
24 -19 6 -9 -16 18 -30 33 -17 9 7 13 7 13 -1 0 -7 10 -11 23 -9 16 2 22 -2
21 -14 -1 -10 2 -15 8 -12 5 3 6 14 3 25 -5 14 -3 17 10 13 9 -4 24 1 34 10
15 13 20 14 24 4 7 -19 20 -2 20 26 0 14 4 23 9 20 5 -3 6 -15 3 -27 -2 -12
-2 -16 1 -9 3 6 10 9 16 6 6 -4 7 11 2 42 -8 56 -14 69 -15 33 0 -22 -1 -23
-9 -4 -5 11 -9 37 -9 57 -1 50 -11 74 -23 56 -8 -10 -9 -10 -5 2 6 24 30 17
39 -10 7 -22 7 -21 4 8 -3 35 7 42 23 15 10 -17 10 -17 11 0 0 9 5 17 11 17 5
0 8 4 5 9 -3 5 1 8 9 7 7 0 15 3 17 8 4 12 -30 17 -37 5 -3 -4 -16 -4 -30 1
-15 6 -27 6 -30 -1z"/>
</g>
</svg>
